<svg xmlns="http://www.w3.org/2000/svg" width="290" height="78" viewBox="0 0 1256 480">
<path fill="#FFFFFF" d="M0 0h1256v480H0V0Z"/>
<path fill="#FFFFFF" d="M243 136h2v2l2.555.738c3.826 1.402 7.13 3.307 10.57 5.45l3.96 2.417 1.984 1.217A605.489 605.489 0 0 0 272.75 153l2.86 1.688c2.42 1.422 2.42 1.422 5.39 2.312v2l2.063.813c3.334 1.348 6.634 2.762 9.937 4.187v2l2.104.778c3.241 1.368 6.183 3.014 9.228 4.777l1.804 1.039c1.894 1.09 3.786 2.185 5.676 3.281C322.75 182.226 322.75 182.226 334 188v2l2.063.813c3.334 1.348 6.634 2.762 9.937 4.187v2l2.189.826c2.746 1.147 5.218 2.463 7.788 3.96l2.78 1.607 2.868 1.67a2438.92 2438.92 0 0 0 5.664 3.285l2.522 1.469c2.26 1.302 2.26 1.302 5.189 2.183v2l2.063.813c3.334 1.348 6.634 2.762 9.937 4.187v2l2.089.773c5.3 2.234 10.21 5.25 15.196 8.104 1.97 1.125 3.943 2.242 5.918 3.357l3.75 2.141 3.443 1.96C420 239 420 239 421 241c-15.518 5.271-31.132 10.173-46.813 14.938-2.265.69-4.53 1.38-6.794 2.072-5.464 1.666-10.928 3.33-16.393 4.99 0 3.278 2.207 5.087 4.188 7.625l1.343 1.727c4.142 5.294 8.394 10.5 12.65 15.703 4.17 5.111 8.196 10.312 12.19 15.562 3.686 4.795 7.557 9.446 11.428 14.092l1.611 1.955 1.442 1.733C397 323 397 323 398 326l-3.008 2.055A1375.908 1375.908 0 0 0 368 347c-4-3.75-7.03-7.695-10.063-12.25-.97-1.434-1.941-2.868-2.914-4.3l-1.508-2.23c-2.444-3.581-4.946-7.12-7.452-10.658l-1.497-2.116c-2.054-2.902-4.11-5.803-6.167-8.704C326.702 290.238 326.702 290.238 322 283a150.607 150.607 0 0 0-10.125 10.938l-1.442 1.71c-3.795 4.528-7.453 9.155-11.08 13.818-5.488 7.035-11.19 13.895-16.895 20.753a176.835 176.835 0 0 0-3.743 4.777L277 337h-2c-3.584-22.22-7.166-44.44-10.745-66.661l-4.99-30.961c-1.453-9.009-2.905-18.017-4.356-27.026-.766-4.758-1.532-9.516-2.3-14.273-3.338-20.674-6.625-41.35-9.609-62.079Z"/>
<path fill="#FFFFFF" d="m813.25 185.813 2.816-.038c10.897-.023 21.066 3.279 29.496 10.385 11.43 11.873 14.813 25.96 14.666 41.89-.365 16.432-3.047 32.946-15.06 45.122-9.14 7.708-18.61 11.4-30.48 11.265l-2.814-.022c-10.694-.257-19.667-3.39-27.874-10.415l-6-7-1 55h-12V188h12l1 17 4-6c8.69-9.43 18.75-13.179 31.25-13.188Z"/>
<path fill="#FFFFFF" d="M717.086 190.098c4.85 3.166 8.963 6.674 12.914 10.902l1.77 1.793c10.218 11.719 11.094 30.47 10.23 45.207-1.493 13.08-6.773 27.207-17 36-13.183 9.307-26.17 11.204-42 10-10.394-1.931-20.196-8.848-26.727-17.078-10.538-15.905-12.349-34.268-9.148-52.735 3.306-14.45 10.976-25.712 23.344-33.933 13.857-6.865 32.8-7.3 46.617-.156Z"/>
<path fill="#000000" d="M488 148c76.956 0 76.956 0 89.777 11.61 7.336 7.506 9.568 16.322 9.598 26.577-.233 11.398-2.416 20.098-10.16 28.825-14.961 14.162-35.974 13.418-55.153 13.175L501 228v63h-13V148Z"/>
<path fill="#642DE5" d="M231 118a4076.802 4076.802 0 0 1 64.057 37.22c1.709 1.013 3.42 2.022 5.13 3.03l2.668 1.578c2.221 1.296 2.221 1.296 5.145 2.172v2l2.086.773c3.318 1.397 6.415 3.076 9.539 4.852l2.055 1.162c7.37 4.195 14.653 8.54 21.94 12.877 8.423 5.011 16.88 9.956 25.38 14.836a2002.312 2002.312 0 0 1 26.5 15.5 2386.13 2386.13 0 0 0 27.625 16.188l3.213 1.853c5.86 3.371 11.74 6.698 17.662 9.959v2l-78 24c2.591 4.324 2.591 4.324 5.531 8.277l1.44 1.784 1.529 1.877 3.25 4.027 1.652 2.046A876.477 876.477 0 0 1 386.5 295c3.886 4.962 7.807 9.895 11.75 14.813l4.418 5.523c1.213 1.515 2.428 3.027 3.644 4.539l1.938 2.438 1.64 2.05C411 326 411 326 411 328a163.643 163.643 0 0 1-7.438 5.375l-4.69 3.258-2.447 1.688a1435.993 1435.993 0 0 0-11.3 7.929l-2.135 1.502a613.58 613.58 0 0 0-14.986 10.92C366 360 366 360 364 360c-1.27-1.773-1.27-1.773-2.813-4.375-3.207-5.19-6.654-10.135-10.25-15.063-5.433-7.455-10.756-14.98-16.026-22.552a532.934 532.934 0 0 0-11.653-16.112C322 300 322 300 322 298c-7.158 6.934-13.472 14.505-19.585 22.358-5.139 6.596-10.423 13.07-15.71 19.548-1.787 2.195-3.569 4.394-5.35 6.594l-1.797 2.22c-1.141 1.408-2.281 2.818-3.42 4.229l-1.556 1.918-1.368 1.691C272 358 272 358 270 360c-1.586-5.178-2.648-10.275-3.486-15.62l-.412-2.56c-.454-2.824-.9-5.648-1.348-8.472l-.98-6.119c-.89-5.559-1.774-11.118-2.657-16.678-.742-4.665-1.486-9.33-2.231-13.995a52109 52109 0 0 1-6.292-39.524c-1.3-8.186-2.602-16.371-3.905-24.557a100971.91 100971.91 0 0 1-9.146-57.558c-1.11-6.992-2.22-13.983-3.326-20.975l-1.11-6.994a9511.8 9511.8 0 0 1-1.52-9.593l-.446-2.798A318.178 318.178 0 0 1 231 118Zm12 18c5.187 33.418 10.426 66.828 15.79 100.219l.362 2.261c1.454 9.05 2.91 18.098 4.367 27.147 1.259 7.82 2.516 15.64 3.773 23.46 2.567 15.971 5.137 31.942 7.708 47.913 2.982-1.419 4.784-2.607 6.848-5.203l1.566-1.95 1.649-2.097 1.74-2.178c4.016-5.037 7.981-10.114 11.948-15.19 3.814-4.865 7.705-9.664 11.624-14.445l1.767-2.165c3.123-3.793 6.315-7.368 9.858-10.772l1.984 2.902c5.38 7.856 10.81 15.674 16.313 23.444 4.007 5.66 7.983 11.343 11.953 17.029 4.842 6.931 9.727 13.823 14.75 20.625 7.958-4.82 15.475-10.153 22.98-15.643l2.274-1.662 2.041-1.5C396 327 396 327 398 326c-1.338-2.896-2.854-5.215-4.906-7.652l-1.739-2.083-1.855-2.202a532.438 532.438 0 0 1-14.938-18.75c-2.958-3.86-6.043-7.614-9.125-11.375A470.57 470.57 0 0 1 350 264c6.189-2.903 12.621-4.815 19.161-6.775 2.048-.614 4.095-1.234 6.14-1.855a8065.335 8065.335 0 0 1 17.443-5.266 4057.22 4057.22 0 0 0 10.704-3.24c1.356-.41 2.714-.82 4.072-1.226 1.893-.565 3.783-1.14 5.673-1.714l3.26-.982c2.67-.785 2.67-.785 4.547-2.942l-1.86-1.098c-2.84-1.675-5.677-3.351-8.515-5.027l-2.926-1.727-2.91-1.718-2.91-1.716a530.564 530.564 0 0 1-5.767-3.483l-2.714-1.66-2.424-1.5c-1.893-1.23-1.893-1.23-3.974-1.071v-2c-1.622-.838-3.248-1.67-4.875-2.5l-2.742-1.406c-2.249-1.233-2.249-1.233-4.383-1.094v-2l-2.098-.996c-6.91-3.36-13.48-7.048-20-11.107-3.21-2.171-3.21-2.171-6.902-2.897v-2c-1.622-.838-3.248-1.67-4.875-2.5l-2.742-1.406c-2.249-1.233-2.249-1.233-4.383-1.094v-2l-2.128-1.018c-8.275-4.038-16.128-8.591-23.997-13.357a2177.61 2177.61 0 0 0-7.195-4.336l-3.165-1.915c-2.33-1.534-2.33-1.534-4.515-1.374v-2c-1.622-.838-3.248-1.67-4.875-2.5l-2.742-1.406c-2.249-1.233-2.249-1.233-4.383-1.094v-2l-1.852-.855c-8.557-4.11-16.639-8.912-24.756-13.825l-2.806-1.687-2.53-1.535c-1.962-1.255-1.962-1.255-4.056-1.098v-2h-2Z"/>
<path fill="#000000" d="m813.25 185.813 2.816-.038c10.897-.023 21.066 3.279 29.496 10.385 11.43 11.873 14.813 25.96 14.666 41.89-.365 16.432-3.047 32.946-15.06 45.122-9.14 7.708-18.61 11.4-30.48 11.265l-2.814-.022c-10.694-.257-19.667-3.39-27.874-10.415l-6-7-1 55h-12V188h12l1 17 4-6c8.69-9.43 18.75-13.179 31.25-13.188Zm-26.977 22.328c-9.724 14.083-10.764 28.677-8.156 45.261 2.304 9.389 6.961 18.787 14.883 24.598l2.031 1.523c8.367 5.186 19.463 4.978 28.848 2.813C832.36 278.943 839.039 272.13 843 264c5.749-14.144 6.358-32.65 1-47-4.31-9.17-10.359-15.552-19.957-19.09-14.394-4.01-27.948-1.946-37.77 10.23Z"/>
<path fill="#FFFFFF" d="m502 160 22.188-.25 6.918-.11c26.064-.241 26.064-.241 35.894 8.36 7.093 8.473 6.708 17.012 6.231 27.677-.592 5.954-3.463 9.454-7.418 13.636-6.154 3.691-13.333 6.82-20.56 6.8h-2.952l-3.094-.015-2.85-.003c-3.515-.006-7.03-.02-10.544-.032L502 216v-56Z"/>
<path fill="#000000" d="M717.086 190.098c4.85 3.166 8.963 6.674 12.914 10.902l1.77 1.793c10.218 11.719 11.094 30.47 10.23 45.207-1.493 13.08-6.773 27.207-17 36-13.183 9.307-26.17 11.204-42 10-10.394-1.931-20.196-8.848-26.727-17.078-10.538-15.905-12.349-34.268-9.148-52.735 3.306-14.45 10.976-25.712 23.344-33.933 13.857-6.865 32.8-7.3 46.617-.156Zm-50.258 19.472c-8.722 11.592-9.098 26.535-7.828 40.43 1.494 8.904 4.545 17.5 11 24l1.914 1.957c6.622 6.277 13.138 7.393 22.024 7.356l2.302.048c8.894.008 15.195-2.854 21.65-8.931 3.76-4.332 5.99-9.138 8.11-14.43l1.031-2.512c4.454-13.135 3.433-29.847-2.031-42.488-3.868-7.356-8.674-12.126-16-16l-1.895-1.027c-15.005-6.855-30.337.026-40.277 11.597Z"/>
<path fill="#000000" d="m1007 190 3.25 1.688c6.561 5.517 11.857 12.636 13.02 21.334.095 2.113.102 4.207.07 6.322l.002 2.397a931.627 931.627 0 0 1-.049 7.759 3065.309 3065.309 0 0 1-.087 19.598c-.03 4.833-.044 9.666-.06 14.5-.032 9.467-.083 18.935-.146 28.402h-12l-.011-2.863c-.037-8.93-.095-17.86-.173-26.79-.04-4.59-.072-9.18-.087-13.77-.015-4.435-.05-8.87-.097-13.305a613.2 613.2 0 0 1-.024-5.06c-.01-10.304-.28-18.681-6.858-27.087-6.071-4.692-11.312-5.385-18.813-5.438l-2.038-.016c-8.476.12-14.894 2.422-20.899 8.329-8.126 10.566-8.312 21.737-8.414 34.535a3325.613 3325.613 0 0 0-.187 16.141c-.04 3.983-.091 7.965-.141 11.947-.097 7.792-.181 15.585-.258 23.377h-12V188h12l1 13 4.25-4.125c13.715-12.091 31.982-15.754 48.75-6.875Z"/>
<path fill="#000000" d="M892 148h14v144h-14V148Z"/>
<path fill="#000000" d="M610 148h12v143h-12V148Z"/>
</svg>